<svg width="28" height="30" viewBox="0 0 28 30" fill="none" xmlns="http://www.w3.org/2000/svg">
<g clip-path="url(#clip0_4_85)">
<path d="M28 14.9327C28 6.72545 21.7328 0.0737305 14 0.0737305C6.26719 0.0737305 0 6.72545 0 14.9327C0 22.3506 5.11875 28.4974 11.8125 29.6118V19.2279H8.25781V14.9327H11.8125V11.6591C11.8125 7.93565 13.9016 5.87803 17.1008 5.87803C18.632 5.87803 20.2344 6.16824 20.2344 6.16824V9.82495H18.468C16.7289 9.82495 16.1875 10.9713 16.1875 12.1467V14.9327H20.0703L19.4496 19.2279H16.1875V29.6118C22.8813 28.4974 28 22.3506 28 14.9327Z" fill="#1877F2"/>
<path d="M19.4496 19.2278L20.0703 14.9326H16.1875V12.1466C16.1875 10.9712 16.7289 9.82485 18.468 9.82485H20.2344V6.16814C20.2344 6.16814 18.632 5.87793 17.1008 5.87793C13.9016 5.87793 11.8125 7.93555 11.8125 11.659V14.9326H8.25781V19.2278H11.8125V29.6117C12.5262 29.7307 13.2562 29.7916 14 29.7916C14.7438 29.7916 15.4738 29.7307 16.1875 29.6117V19.2278H19.4496Z" fill="white"/>
</g>
<defs>
<clipPath id="clip0_4_85">
<rect width="28" height="29.718" fill="white" transform="translate(0 0.0737305)"/>
</clipPath>
</defs>
</svg>
