<svg width="29" height="30" viewBox="0 0 29 30" fill="none" xmlns="http://www.w3.org/2000/svg">
<ellipse cx="14.2694" cy="14.7719" rx="14.2694" ry="14.7704" fill="#2F89CE"/>
<path d="M6.67142 15.0463L9.95201 16.3125L11.2309 20.5716C11.2865 20.8594 11.6201 20.9169 11.8425 20.7443L13.6774 19.1903C13.8442 19.0176 14.1222 19.0176 14.3447 19.1903L17.6252 21.6651C17.8476 21.8378 18.1813 21.7227 18.2369 21.4349L20.6834 9.34825C20.739 9.06047 20.461 8.77269 20.183 8.88781L6.67142 14.298C6.3378 14.4131 6.3378 14.9311 6.67142 15.0463ZM11.0641 15.6794L17.514 11.5929C17.6252 11.5354 17.7364 11.708 17.6252 11.7656L12.3429 16.888C12.1761 17.0607 12.0093 17.2909 12.0093 17.5787L11.8425 18.96C11.8425 19.1327 11.5645 19.1903 11.5089 18.96L10.8417 16.4276C10.6748 16.1398 10.7861 15.7945 11.0641 15.6794Z" fill="white"/>
</svg>
