<svg width="29" height="30" viewBox="0 0 29 30" fill="none" xmlns="http://www.w3.org/2000/svg">
<path d="M14.5 0.073513C22.5081 0.073513 29 6.72611 29 14.9325C29 23.1389 22.5081 29.7915 14.5 29.7915C6.49187 29.7915 0 23.1389 0 14.9325C0 6.72611 6.49187 0.073513 14.5 0.073513Z" fill="#7F4DA0"/>
<path d="M18.3631 13.0495C18.2926 12.4624 18.1165 12.0014 17.8037 11.593C17.3977 11.0672 16.8787 10.7524 16.1104 10.5656C15.6097 10.4411 15.4074 10.4554 15.2263 10.6249C15.0576 10.7837 15.0247 11.1021 15.1536 11.3083C15.2443 11.4579 15.3488 11.5115 15.6397 11.57C16.027 11.6431 16.2947 11.7378 16.5382 11.8805C17.055 12.1863 17.2957 12.6649 17.3215 13.4396C17.3335 13.8034 17.3642 13.9152 17.4882 14.0442C17.718 14.2801 18.1269 14.2342 18.3004 13.952C18.3641 13.8456 18.3738 13.7993 18.3805 13.5523C18.3849 13.3994 18.3785 13.1717 18.3631 13.0495Z" fill="white"/>
<path d="M20.3874 13.7114C20.2853 11.9126 19.5987 10.4654 18.37 9.4472C17.6777 8.87506 16.8409 8.48164 15.9236 8.29031C15.5876 8.22188 14.9689 8.16641 14.8628 8.19814C14.7626 8.22752 14.621 8.33865 14.5579 8.43914C14.4911 8.54812 14.476 8.79144 14.533 8.93219C14.6249 9.16747 14.7959 9.25059 15.2749 9.29353C16.0132 9.35973 16.7748 9.62556 17.3502 10.0191C18.0071 10.4672 18.5293 11.0801 18.8672 11.8002C19.1591 12.419 19.3386 13.3107 19.3336 14.1093C19.332 14.3981 19.3755 14.5612 19.4888 14.6804C19.6599 14.8638 19.9093 14.9039 20.1294 14.7821C20.3733 14.6506 20.4303 14.4199 20.3874 13.7114Z" fill="white"/>
<path d="M22.6274 20.6387C22.5931 20.5359 22.513 20.3773 22.4557 20.2862C22.0951 19.7282 20.1578 18.1745 19.1905 17.6664C18.6382 17.3756 18.2289 17.2787 17.9256 17.3697C17.5993 17.4638 17.4276 17.6194 16.881 18.3155C16.6607 18.5945 16.4346 18.8559 16.3745 18.897C16.2257 19.0027 15.9338 19.0879 15.7278 19.0879C15.2498 19.085 14.3827 18.7678 13.7159 18.3507C13.198 18.0277 12.5341 17.4491 12.0247 16.8763C11.4237 16.2038 11.0145 15.6105 10.6911 14.9408C10.2733 14.0803 10.1674 13.5545 10.3419 13.1698C10.3849 13.0729 10.4421 12.9701 10.4678 12.9377C10.4936 12.9084 10.7626 12.6822 11.0602 12.4355C11.644 11.9597 11.7385 11.8511 11.8472 11.525C11.9846 11.1109 11.9474 10.688 11.7356 10.2621C11.5725 9.93903 11.1461 9.23414 10.837 8.77891C10.4278 8.17978 9.40902 6.89923 9.2058 6.72589C8.83951 6.42047 8.37022 6.36757 7.8522 6.57321C7.30565 6.79055 6.28112 7.63641 5.84326 8.22677C5.44833 8.76129 5.29671 9.14016 5.27379 9.63946C5.25378 10.0506 5.2881 10.221 5.49988 10.7467C7.15683 14.8703 9.62935 18.1627 13.0263 20.7767C14.8005 22.1424 16.6406 23.1822 18.5494 23.893C19.6626 24.307 20.1463 24.3276 20.7158 23.9869C20.9561 23.8401 21.5514 23.2145 21.8833 22.7592C22.4328 22.0015 22.636 21.652 22.6932 21.3729C22.7333 21.182 22.7018 20.8502 22.6274 20.6387Z" fill="white"/>
<path d="M22.4481 14.1247C22.4115 13.1072 22.2443 12.2726 21.8957 11.3421C21.5515 10.4268 21.2032 9.82947 20.5454 9.02163C19.9235 8.26417 19.4405 7.83168 18.6744 7.35026C17.6055 6.67951 16.3048 6.23563 14.847 6.04895C14.3499 5.98371 14.2374 5.98837 14.0849 6.09265C13.7894 6.29021 13.7933 6.78295 14.0898 6.97754C14.1879 7.03944 14.275 7.06199 14.6727 7.11533C15.2831 7.19955 15.6756 7.27892 16.1414 7.40915C17.9678 7.92078 19.3723 8.96657 20.3113 10.519C21.0971 11.813 21.4233 13.107 21.377 14.7598C21.3609 15.3185 21.3726 15.4168 21.4559 15.5511C21.6155 15.8013 22.0364 15.8508 22.2524 15.6432C22.3867 15.5166 22.4121 15.4216 22.4385 14.9434C22.4512 14.6939 22.4539 14.3257 22.4481 14.1247Z" fill="white"/>
</svg>
